<svg height="464pt" viewBox="0 -11 464 463" width="464pt" xmlns="http://www.w3.org/2000/svg"><path d="m80 256.5h368v128c0 8.800781-7.199219 16-16 16h-352zm0 0" fill="#e8821c"/><path d="m208 184.5h-16v-29.601562c0-3.199219.800781-7.199219 3.199219-9.597657l22.402343-29.601562 12.796876 9.601562-22.398438 29.597657zm0 0" fill="#b4b4b5"/><path d="m408 400.5c0 17.671875-14.328125 32-32 32s-32-14.328125-32-32 14.328125-32 32-32 32 14.328125 32 32zm0 0" fill="#2b2b2b"/><path d="m80 224.5h368c8.800781 0 16 7.199219 16 16s-7.199219 16-16 16h-368c-8.800781 0-16-7.199219-16-16s7.199219-16 16-16zm0 0" fill="#f4a422"/><path d="m293.601562 196.5-13.601562-20h-48v32.800781c0 8.800781-7.199219 16-16 15.199219-8.800781 0-16 7.199219-16 16v136c0 8.800781 7.199219 16 16 16h64c8.800781 0 16-7.199219 16-16v-171.199219c0-3.199219-.800781-6.402343-2.398438-8.800781zm0 0" fill="#264b74"/><path d="m280 96.5h-72c-8.800781 0-16 7.199219-16 16s7.199219 16 16 16h32v16l-8 16v16h48v-40l7.199219-3.199219c5.601562-2.402343 8.800781-8 8.800781-14.402343v-6.398438c0-8.800781-7.199219-16-16-16zm0 0" fill="#b4b4b5"/><path d="m273.601562 246.101562c-9.601562-7.203124-22.402343-5.601562-30.402343 3.199219 0 0 0 0-.800781.800781-7.199219 9.597657-20.796876 11.199219-29.597657 4-1.601562-.800781-2.402343-1.601562-3.199219-3.203124l-9.601562-9.597657v135.199219c0 8.800781 7.199219 16 16 16h64c8.800781 0 16-7.199219 16-16v-111.199219zm0 0" fill="#5ab8e2"/><path d="m208 96.5h16v32h-16c-8.800781 0-16-7.199219-16-16s7.199219-16 16-16zm0 0" fill="#727272"/><path d="m272 336.5h-256c-8.800781 0-16 7.199219-16 16v88h288v-88c0-8.800781-7.199219-16-16-16zm0 0" fill="#d6d7d8"/><g fill="#a0a0a0"><path d="m24 360.5h240v16h-240zm0 0"/><path d="m56 392.5h16v48h-16zm0 0"/><path d="m88 392.5h16v48h-16zm0 0"/><path d="m120 392.5h16v48h-16zm0 0"/><path d="m152 392.5h16v48h-16zm0 0"/><path d="m184 392.5h16v48h-16zm0 0"/><path d="m216 392.5h16v48h-16zm0 0"/><path d="m248 392.5h16v48h-16zm0 0"/></g><path d="m176 304.5h-64c-8.800781 0-16 7.199219-16 16v16h96v-16c0-8.800781-7.199219-16-16-16zm0 0" fill="#227726"/><path d="m24 392.5h16v48h-16zm0 0" fill="#a0a0a0"/><path d="m128 .5h32v304h-32zm0 0" fill="#2aa035"/></svg>